<mxfile host="app.diagrams.net" modified="2024-06-04T13:09:01.363Z" agent="Mozilla/5.0 (Windows NT 10.0; Win64; x64) AppleWebKit/537.36 (KHTML, like Gecko) Chrome/125.0.0.0 Safari/537.36" etag="DMgSNC83Jv4VSp4ZLbfZ" version="24.4.13" type="device">
  <diagram id="C5RBs43oDa-KdzZeNtuy" name="Page-1">
    <mxGraphModel dx="3369" dy="1409" grid="1" gridSize="10" guides="1" tooltips="1" connect="1" arrows="1" fold="1" page="1" pageScale="1" pageWidth="827" pageHeight="1169" math="0" shadow="0">
      <root>
        <mxCell id="WIyWlLk6GJQsqaUBKTNV-0" />
        <mxCell id="WIyWlLk6GJQsqaUBKTNV-1" parent="WIyWlLk6GJQsqaUBKTNV-0" />
        <mxCell id="TEqo7rVoBJVi55r1kK-j-9" value="" style="edgeStyle=orthogonalEdgeStyle;rounded=1;orthogonalLoop=1;jettySize=auto;html=1;labelBackgroundColor=none;fontColor=default;strokeColor=#E07A5F;" edge="1" parent="WIyWlLk6GJQsqaUBKTNV-1" source="TEqo7rVoBJVi55r1kK-j-0" target="TEqo7rVoBJVi55r1kK-j-1">
          <mxGeometry relative="1" as="geometry" />
        </mxCell>
        <mxCell id="TEqo7rVoBJVi55r1kK-j-0" value="Start" style="ellipse;whiteSpace=wrap;html=1;labelBackgroundColor=none;rounded=1;fillColor=#F2CC8F;strokeColor=#E07A5F;fontColor=#393C56;" vertex="1" parent="WIyWlLk6GJQsqaUBKTNV-1">
          <mxGeometry x="-1260" y="330" width="120" height="80" as="geometry" />
        </mxCell>
        <mxCell id="TEqo7rVoBJVi55r1kK-j-10" value="" style="edgeStyle=orthogonalEdgeStyle;rounded=1;orthogonalLoop=1;jettySize=auto;html=1;labelBackgroundColor=none;fontColor=default;strokeColor=#E07A5F;" edge="1" parent="WIyWlLk6GJQsqaUBKTNV-1" source="TEqo7rVoBJVi55r1kK-j-1" target="TEqo7rVoBJVi55r1kK-j-2">
          <mxGeometry relative="1" as="geometry" />
        </mxCell>
        <mxCell id="TEqo7rVoBJVi55r1kK-j-1" value="&quot;Welcome to TicTacToe!&quot;" style="shape=parallelogram;perimeter=parallelogramPerimeter;whiteSpace=wrap;html=1;fixedSize=1;labelBackgroundColor=none;rounded=1;fillColor=#F2CC8F;strokeColor=#E07A5F;fontColor=#393C56;" vertex="1" parent="WIyWlLk6GJQsqaUBKTNV-1">
          <mxGeometry x="-1260" y="440" width="120" height="60" as="geometry" />
        </mxCell>
        <mxCell id="TEqo7rVoBJVi55r1kK-j-11" value="" style="edgeStyle=orthogonalEdgeStyle;rounded=1;orthogonalLoop=1;jettySize=auto;html=1;labelBackgroundColor=none;fontColor=default;strokeColor=#E07A5F;" edge="1" parent="WIyWlLk6GJQsqaUBKTNV-1" source="TEqo7rVoBJVi55r1kK-j-2" target="TEqo7rVoBJVi55r1kK-j-3">
          <mxGeometry relative="1" as="geometry" />
        </mxCell>
        <mxCell id="TEqo7rVoBJVi55r1kK-j-2" value="Select Player" style="shape=parallelogram;perimeter=parallelogramPerimeter;whiteSpace=wrap;html=1;fixedSize=1;labelBackgroundColor=none;rounded=1;fillColor=#F2CC8F;strokeColor=#E07A5F;fontColor=#393C56;" vertex="1" parent="WIyWlLk6GJQsqaUBKTNV-1">
          <mxGeometry x="-1260" y="530" width="120" height="60" as="geometry" />
        </mxCell>
        <mxCell id="TEqo7rVoBJVi55r1kK-j-12" value="" style="edgeStyle=orthogonalEdgeStyle;rounded=1;orthogonalLoop=1;jettySize=auto;html=1;entryX=0;entryY=0.5;entryDx=0;entryDy=0;labelBackgroundColor=none;fontColor=default;strokeColor=#E07A5F;" edge="1" parent="WIyWlLk6GJQsqaUBKTNV-1" source="TEqo7rVoBJVi55r1kK-j-3" target="TEqo7rVoBJVi55r1kK-j-4">
          <mxGeometry relative="1" as="geometry">
            <Array as="points">
              <mxPoint x="-1100" y="650" />
              <mxPoint x="-1100" y="360" />
            </Array>
          </mxGeometry>
        </mxCell>
        <mxCell id="TEqo7rVoBJVi55r1kK-j-3" value="Input board&lt;div&gt;Dimension&lt;/div&gt;" style="shape=parallelogram;perimeter=parallelogramPerimeter;whiteSpace=wrap;html=1;fixedSize=1;labelBackgroundColor=none;rounded=1;fillColor=#F2CC8F;strokeColor=#E07A5F;fontColor=#393C56;" vertex="1" parent="WIyWlLk6GJQsqaUBKTNV-1">
          <mxGeometry x="-1260" y="620" width="120" height="60" as="geometry" />
        </mxCell>
        <mxCell id="TEqo7rVoBJVi55r1kK-j-13" value="" style="edgeStyle=orthogonalEdgeStyle;rounded=1;orthogonalLoop=1;jettySize=auto;html=1;labelBackgroundColor=none;fontColor=default;strokeColor=#E07A5F;" edge="1" parent="WIyWlLk6GJQsqaUBKTNV-1" source="TEqo7rVoBJVi55r1kK-j-4" target="TEqo7rVoBJVi55r1kK-j-5">
          <mxGeometry relative="1" as="geometry" />
        </mxCell>
        <mxCell id="TEqo7rVoBJVi55r1kK-j-4" value="Initialize&amp;nbsp;&lt;div&gt;Board&lt;/div&gt;" style="rounded=1;whiteSpace=wrap;html=1;labelBackgroundColor=none;fillColor=#F2CC8F;strokeColor=#E07A5F;fontColor=#393C56;" vertex="1" parent="WIyWlLk6GJQsqaUBKTNV-1">
          <mxGeometry x="-1050" y="330" width="120" height="60" as="geometry" />
        </mxCell>
        <mxCell id="TEqo7rVoBJVi55r1kK-j-14" value="" style="edgeStyle=orthogonalEdgeStyle;rounded=1;orthogonalLoop=1;jettySize=auto;html=1;labelBackgroundColor=none;fontColor=default;strokeColor=#E07A5F;" edge="1" parent="WIyWlLk6GJQsqaUBKTNV-1" source="TEqo7rVoBJVi55r1kK-j-5" target="TEqo7rVoBJVi55r1kK-j-6">
          <mxGeometry relative="1" as="geometry" />
        </mxCell>
        <mxCell id="TEqo7rVoBJVi55r1kK-j-5" value="Display Board" style="shape=parallelogram;perimeter=parallelogramPerimeter;whiteSpace=wrap;html=1;fixedSize=1;labelBackgroundColor=none;rounded=1;fillColor=#F2CC8F;strokeColor=#E07A5F;fontColor=#393C56;" vertex="1" parent="WIyWlLk6GJQsqaUBKTNV-1">
          <mxGeometry x="-1050" y="430" width="120" height="60" as="geometry" />
        </mxCell>
        <mxCell id="TEqo7rVoBJVi55r1kK-j-18" value="NO" style="edgeStyle=orthogonalEdgeStyle;rounded=1;orthogonalLoop=1;jettySize=auto;html=1;labelBackgroundColor=none;fontColor=default;strokeColor=#E07A5F;" edge="1" parent="WIyWlLk6GJQsqaUBKTNV-1" source="TEqo7rVoBJVi55r1kK-j-6" target="TEqo7rVoBJVi55r1kK-j-8">
          <mxGeometry relative="1" as="geometry">
            <mxPoint x="-990" y="780" as="targetPoint" />
            <Array as="points">
              <mxPoint x="-990" y="690" />
              <mxPoint x="-860" y="690" />
            </Array>
          </mxGeometry>
        </mxCell>
        <mxCell id="TEqo7rVoBJVi55r1kK-j-19" value="YES" style="edgeStyle=orthogonalEdgeStyle;rounded=1;orthogonalLoop=1;jettySize=auto;html=1;exitX=0.5;exitY=1;exitDx=0;exitDy=0;entryX=0.5;entryY=0;entryDx=0;entryDy=0;labelBackgroundColor=none;fontColor=default;strokeColor=#E07A5F;" edge="1" parent="WIyWlLk6GJQsqaUBKTNV-1" source="TEqo7rVoBJVi55r1kK-j-6" target="TEqo7rVoBJVi55r1kK-j-7">
          <mxGeometry relative="1" as="geometry" />
        </mxCell>
        <mxCell id="TEqo7rVoBJVi55r1kK-j-6" value="is Current player X?" style="rhombus;whiteSpace=wrap;html=1;labelBackgroundColor=none;rounded=1;fillColor=#F2CC8F;strokeColor=#E07A5F;fontColor=#393C56;" vertex="1" parent="WIyWlLk6GJQsqaUBKTNV-1">
          <mxGeometry x="-1060" y="520" width="140" height="140" as="geometry" />
        </mxCell>
        <mxCell id="TEqo7rVoBJVi55r1kK-j-28" style="edgeStyle=orthogonalEdgeStyle;rounded=1;orthogonalLoop=1;jettySize=auto;html=1;entryX=0;entryY=0.5;entryDx=0;entryDy=0;labelBackgroundColor=none;fontColor=default;strokeColor=#E07A5F;" edge="1" parent="WIyWlLk6GJQsqaUBKTNV-1" source="TEqo7rVoBJVi55r1kK-j-7" target="TEqo7rVoBJVi55r1kK-j-20">
          <mxGeometry relative="1" as="geometry">
            <mxPoint x="-800" y="310" as="targetPoint" />
            <Array as="points">
              <mxPoint x="-1120" y="870" />
              <mxPoint x="-790" y="870" />
              <mxPoint x="-790" y="310" />
            </Array>
          </mxGeometry>
        </mxCell>
        <mxCell id="TEqo7rVoBJVi55r1kK-j-7" value="Input X" style="shape=parallelogram;perimeter=parallelogramPerimeter;whiteSpace=wrap;html=1;fixedSize=1;labelBackgroundColor=none;rounded=1;fillColor=#F2CC8F;strokeColor=#E07A5F;fontColor=#393C56;" vertex="1" parent="WIyWlLk6GJQsqaUBKTNV-1">
          <mxGeometry x="-1180" y="720" width="120" height="60" as="geometry" />
        </mxCell>
        <mxCell id="TEqo7rVoBJVi55r1kK-j-8" value="Input O" style="shape=parallelogram;perimeter=parallelogramPerimeter;whiteSpace=wrap;html=1;fixedSize=1;labelBackgroundColor=none;rounded=1;fillColor=#F2CC8F;strokeColor=#E07A5F;fontColor=#393C56;" vertex="1" parent="WIyWlLk6GJQsqaUBKTNV-1">
          <mxGeometry x="-920" y="720" width="120" height="60" as="geometry" />
        </mxCell>
        <mxCell id="TEqo7rVoBJVi55r1kK-j-24" value="" style="edgeStyle=orthogonalEdgeStyle;rounded=1;orthogonalLoop=1;jettySize=auto;html=1;labelBackgroundColor=none;fontColor=default;strokeColor=#E07A5F;" edge="1" parent="WIyWlLk6GJQsqaUBKTNV-1" source="TEqo7rVoBJVi55r1kK-j-20" target="TEqo7rVoBJVi55r1kK-j-21">
          <mxGeometry relative="1" as="geometry" />
        </mxCell>
        <mxCell id="TEqo7rVoBJVi55r1kK-j-27" style="edgeStyle=orthogonalEdgeStyle;rounded=1;orthogonalLoop=1;jettySize=auto;html=1;entryX=0;entryY=0.5;entryDx=0;entryDy=0;labelBackgroundColor=none;fontColor=default;strokeColor=#E07A5F;" edge="1" parent="WIyWlLk6GJQsqaUBKTNV-1" source="TEqo7rVoBJVi55r1kK-j-20" target="TEqo7rVoBJVi55r1kK-j-23">
          <mxGeometry relative="1" as="geometry" />
        </mxCell>
        <mxCell id="TEqo7rVoBJVi55r1kK-j-20" value="Is Draw?" style="rhombus;whiteSpace=wrap;html=1;labelBackgroundColor=none;rounded=1;fillColor=#F2CC8F;strokeColor=#E07A5F;fontColor=#393C56;" vertex="1" parent="WIyWlLk6GJQsqaUBKTNV-1">
          <mxGeometry x="-745" y="255" width="110" height="110" as="geometry" />
        </mxCell>
        <mxCell id="TEqo7rVoBJVi55r1kK-j-25" value="YES&lt;span style=&quot;white-space: pre;&quot;&gt;&#x9;&lt;/span&gt;" style="edgeStyle=orthogonalEdgeStyle;rounded=1;orthogonalLoop=1;jettySize=auto;html=1;labelBackgroundColor=none;fontColor=default;strokeColor=#E07A5F;" edge="1" parent="WIyWlLk6GJQsqaUBKTNV-1" source="TEqo7rVoBJVi55r1kK-j-21">
          <mxGeometry relative="1" as="geometry">
            <mxPoint x="-460" y="460" as="targetPoint" />
            <Array as="points">
              <mxPoint x="-460" y="495" />
              <mxPoint x="-460" y="463" />
            </Array>
          </mxGeometry>
        </mxCell>
        <mxCell id="TEqo7rVoBJVi55r1kK-j-29" style="edgeStyle=orthogonalEdgeStyle;rounded=1;orthogonalLoop=1;jettySize=auto;html=1;entryX=1;entryY=0.5;entryDx=0;entryDy=0;labelBackgroundColor=none;fontColor=default;strokeColor=#E07A5F;" edge="1" parent="WIyWlLk6GJQsqaUBKTNV-1" source="TEqo7rVoBJVi55r1kK-j-21" target="TEqo7rVoBJVi55r1kK-j-5">
          <mxGeometry relative="1" as="geometry">
            <mxPoint x="-850" y="260" as="targetPoint" />
            <Array as="points">
              <mxPoint x="-690" y="600" />
              <mxPoint x="-299" y="600" />
              <mxPoint x="-299" y="240" />
              <mxPoint x="-880" y="240" />
              <mxPoint x="-880" y="460" />
            </Array>
          </mxGeometry>
        </mxCell>
        <mxCell id="TEqo7rVoBJVi55r1kK-j-21" value="Did current player&lt;div&gt;win?&lt;/div&gt;" style="rhombus;whiteSpace=wrap;html=1;labelBackgroundColor=none;rounded=1;fillColor=#F2CC8F;strokeColor=#E07A5F;fontColor=#393C56;" vertex="1" parent="WIyWlLk6GJQsqaUBKTNV-1">
          <mxGeometry x="-747.5" y="430" width="115" height="130" as="geometry" />
        </mxCell>
        <mxCell id="TEqo7rVoBJVi55r1kK-j-26" value="" style="edgeStyle=orthogonalEdgeStyle;rounded=1;orthogonalLoop=1;jettySize=auto;html=1;labelBackgroundColor=none;fontColor=default;strokeColor=#E07A5F;" edge="1" parent="WIyWlLk6GJQsqaUBKTNV-1" source="TEqo7rVoBJVi55r1kK-j-22" target="TEqo7rVoBJVi55r1kK-j-23">
          <mxGeometry relative="1" as="geometry" />
        </mxCell>
        <mxCell id="TEqo7rVoBJVi55r1kK-j-22" value="Display Winner" style="shape=parallelogram;perimeter=parallelogramPerimeter;whiteSpace=wrap;html=1;fixedSize=1;labelBackgroundColor=none;rounded=1;fillColor=#F2CC8F;strokeColor=#E07A5F;fontColor=#393C56;" vertex="1" parent="WIyWlLk6GJQsqaUBKTNV-1">
          <mxGeometry x="-520" y="390" width="140" height="70" as="geometry" />
        </mxCell>
        <mxCell id="TEqo7rVoBJVi55r1kK-j-23" value="END" style="ellipse;whiteSpace=wrap;html=1;labelBackgroundColor=none;rounded=1;fillColor=#F2CC8F;strokeColor=#E07A5F;fontColor=#393C56;" vertex="1" parent="WIyWlLk6GJQsqaUBKTNV-1">
          <mxGeometry x="-510" y="270" width="120" height="80" as="geometry" />
        </mxCell>
        <mxCell id="TEqo7rVoBJVi55r1kK-j-30" value="&lt;font style=&quot;font-size: 36px;&quot;&gt;&lt;b style=&quot;&quot;&gt;FLOW CHART&lt;/b&gt;&lt;/font&gt;" style="text;html=1;align=center;verticalAlign=middle;resizable=0;points=[];autosize=1;strokeColor=none;fillColor=none;labelBackgroundColor=none;rounded=1;fontColor=#393C56;" vertex="1" parent="WIyWlLk6GJQsqaUBKTNV-1">
          <mxGeometry x="-1180" y="210" width="270" height="60" as="geometry" />
        </mxCell>
        <mxCell id="TEqo7rVoBJVi55r1kK-j-31" value="&lt;font style=&quot;font-size: 24px;&quot;&gt;&lt;b&gt;PROJECT NAME: TicTacToe&lt;/b&gt;&lt;/font&gt;" style="text;html=1;align=center;verticalAlign=middle;resizable=0;points=[];autosize=1;strokeColor=none;fillColor=none;labelBackgroundColor=none;rounded=1;fontColor=#393C56;" vertex="1" parent="WIyWlLk6GJQsqaUBKTNV-1">
          <mxGeometry x="-990" y="120" width="340" height="40" as="geometry" />
        </mxCell>
      </root>
    </mxGraphModel>
  </diagram>
</mxfile>
